<mxfile host="65bd71144e">
    <diagram id="3HRkgMCfKGj9J2yj029-" name="第 1 页">
        <mxGraphModel dx="778" dy="785" grid="1" gridSize="10" guides="1" tooltips="1" connect="1" arrows="1" fold="1" page="1" pageScale="1" pageWidth="827" pageHeight="1169" math="0" shadow="0">
            <root>
                <mxCell id="0"/>
                <mxCell id="1" parent="0"/>
                <mxCell id="2" value="Actor" style="shape=umlActor;verticalLabelPosition=bottom;verticalAlign=top;html=1;" parent="1" vertex="1">
                    <mxGeometry x="70" y="120" width="30" height="60" as="geometry"/>
                </mxCell>
                <mxCell id="5" value="Actor" style="shape=umlActor;verticalLabelPosition=bottom;verticalAlign=top;html=1;" parent="1" vertex="1">
                    <mxGeometry x="70" y="280" width="30" height="60" as="geometry"/>
                </mxCell>
                <mxCell id="7" value="" style="line;strokeWidth=1;fillColor=none;align=left;verticalAlign=middle;spacingTop=-1;spacingLeft=3;spacingRight=3;rotatable=0;labelPosition=right;points=[];portConstraint=eastwest;" parent="1" vertex="1">
                    <mxGeometry x="240" y="440" width="40" height="8" as="geometry"/>
                </mxCell>
                <mxCell id="8" value="" style="shape=umlLifeline;participant=umlEntity;perimeter=lifelinePerimeter;whiteSpace=wrap;html=1;container=1;collapsible=0;recursiveResize=0;verticalAlign=top;spacingTop=36;outlineConnect=0;" parent="1" vertex="1">
                    <mxGeometry x="170" y="110" width="40" height="440" as="geometry"/>
                </mxCell>
                <mxCell id="9" value="Actor" style="shape=umlActor;verticalLabelPosition=bottom;verticalAlign=top;html=1;" vertex="1" parent="1">
                    <mxGeometry x="70" y="470" width="30" height="60" as="geometry"/>
                </mxCell>
            </root>
        </mxGraphModel>
    </diagram>
</mxfile>
